<svg width="26" height="26" viewBox="0 0 26 26" fill="none" xmlns="http://www.w3.org/2000/svg">
<path fill-rule="evenodd" clip-rule="evenodd" d="M14.8052 25.8752C21.1259 24.9944 25.9914 19.5663 25.9914 13.0005H25.9933C25.9933 5.82069 20.1743 0 12.9966 0C5.81898 0 0 5.82069 0 13.0005C0 19.4706 4.72621 24.8377 10.914 25.8342C11.5915 25.9435 12.2872 26 12.9957 26C13.6095 26 14.2141 25.9572 14.8052 25.8752ZM14.8052 13.2709V10.4389L14.8061 10.438C14.8061 9.76118 15.3552 9.2119 16.0318 9.2119H18.3084V5.9126H14.8243C14.8211 5.9126 14.8182 5.91305 14.8152 5.91351C14.8122 5.91397 14.8093 5.91442 14.8061 5.91442V5.9126C12.6561 5.9126 10.914 7.65608 10.914 9.80582V13.2709H7.68399V17.0858H10.914V25.8341C11.5915 25.9434 12.2873 25.9999 12.9957 25.9999C13.6095 25.9999 14.2142 25.9571 14.8052 25.8751V17.0858H17.7529L18.3075 13.2709H14.8052Z" fill="#FAFFDC"/>
</svg>
