<svg width="26" height="26" viewBox="0 0 26 26" fill="none" xmlns="http://www.w3.org/2000/svg">
<path fill-rule="evenodd" clip-rule="evenodd" d="M12.9666 0H13.0258C20.187 0 25.9923 5.80713 25.9923 12.9705V13.0295C25.9923 20.1929 20.187 26 13.0258 26H12.9666C5.80533 26 0 20.1929 0 13.0295V12.9705C0 5.80713 5.80533 0 12.9666 0ZM8.97525 5.28955H17.018C19.24 5.28955 21.0476 7.09766 21.0476 9.32031V16.6804C21.0476 18.9031 19.24 20.7112 17.018 20.7112H8.97525C6.7533 20.7112 4.94568 18.9031 4.94568 16.6804V9.32031C4.94568 7.09766 6.7533 5.28955 8.97525 5.28955ZM8.97525 6.71143C7.53735 6.71143 6.36719 7.88208 6.36719 9.32031V16.6804C6.36719 18.1187 7.53735 19.2893 8.97525 19.2893H17.018C18.4559 19.2893 19.6261 18.1187 19.6261 16.6804V9.32031C19.6261 7.88208 18.4559 6.71143 17.018 6.71143H8.97525ZM12.9967 16.7488C15.0629 16.7488 16.7448 15.0671 16.7448 12.9995C16.7448 10.9316 15.0638 9.25024 12.9967 9.25024C10.9295 9.25024 9.24847 10.9316 9.24847 12.9995C9.24847 15.0671 10.9295 16.7488 12.9967 16.7488ZM12.9967 10.6731C14.2798 10.6731 15.3233 11.7168 15.3233 13.0005C15.3233 14.2839 14.2798 15.3276 12.9967 15.3276C11.7136 15.3276 10.67 14.2839 10.67 13.0005C10.67 11.7168 11.7136 10.6731 12.9967 10.6731ZM18.1017 8.8457C18.1017 9.40332 17.6482 9.85596 17.0918 9.85596C16.5345 9.85596 16.0819 9.40332 16.0819 8.8457C16.0819 8.28833 16.5345 7.83545 17.0918 7.83545C17.6491 7.83545 18.1017 8.28833 18.1017 8.8457Z" fill="#FAFFDC"/>
</svg>
