<svg width="26" height="26" viewBox="0 0 26 26" fill="none" xmlns="http://www.w3.org/2000/svg">
<path fill-rule="evenodd" clip-rule="evenodd" d="M12.9666 0H13.0258C20.187 0 25.9923 5.80713 25.9923 12.9705V13.0295C25.9923 20.1929 20.187 26 13.0258 26H12.9666C5.80533 26 0 20.1929 0 13.0295V12.9705C0 5.80713 5.80533 0 12.9666 0ZM19.2791 11.8606V9.40576C18.8948 9.34106 18.3521 9.19995 17.7738 8.8728C17.1564 8.52222 16.7166 8.08301 16.4188 7.70508C16.1648 7.38354 16.019 6.99097 16.0027 6.58203L15.9763 5.95703H13.5239V15.5989C13.5266 15.6428 13.5275 15.6865 13.5275 15.7302C13.5275 16.897 12.5778 17.8472 11.4112 17.8472C10.2447 17.8472 9.29489 16.8979 9.29489 15.7302C9.29489 14.5623 10.2447 13.6133 11.4112 13.6133C11.6598 13.6133 11.8984 13.656 12.1206 13.7354V11.3159C11.9438 11.2874 11.7637 11.2695 11.5808 11.2627C11.5246 11.2605 11.468 11.2595 11.4112 11.2595C8.94702 11.2595 6.94272 13.2661 6.94272 15.7302C6.94272 18.1941 8.94702 20.2 11.4112 20.2C13.8754 20.2 15.8797 18.1941 15.8797 15.7302C15.8797 15.6292 15.8761 15.5288 15.8697 15.4304L15.8797 15.446V10.4841C16.2722 10.7966 16.8714 11.2002 17.6764 11.4954C18.2929 11.7212 18.8502 11.8186 19.2791 11.8606Z" fill="#FAFFDC"/>
</svg>
