<svg width="26" height="26" viewBox="0 0 26 26" fill="none" xmlns="http://www.w3.org/2000/svg">
<path fill-rule="evenodd" clip-rule="evenodd" d="M14.8051 25.8752C21.1259 24.9944 25.9914 19.5662 25.9914 13.0005C25.9932 5.8208 20.1743 0 12.9966 0C5.81897 0 0 5.8208 0 13.0005C0 19.4707 4.72621 24.8376 10.914 25.8342C11.5915 25.9436 12.2872 26 12.9957 26C13.6095 26 14.2141 25.9573 14.8051 25.8752ZM11.2646 13.7502L5.27077 5.73438H9.89134L13.8207 10.9895L18.6835 5.73438H20.0413L14.4272 11.801L20.758 20.2678H16.1383L11.872 14.562L6.59119 20.2678H5.23343L11.2646 13.7502ZM9.38867 6.73462H7.26688L16.6383 19.2678H18.7601L9.38867 6.73462Z" fill="#FAFFDC"/>
</svg>
