<svg width="1440" height="609" fill="none" xmlns="http://www.w3.org/2000/svg"><g clip-path="url(#a)" fill="#289C5E"><circle cx="1386" cy="584" r="492"/><circle cx="120.302" cy="598.302" r="442.302"/><circle cx="373.5" cy="524.5" r="432.5"/><circle cx="998.5" cy="524.5" r="432.5"/><circle cx="676.302" cy="468.302" r="442.302"/><path transform="translate(0 216)" d="M0 0H1439V393H0z"/><circle cx="1269.79" cy="45.55" r="14.887" transform="rotate(86.42 1269.79 45.55)"/><circle cx="1283.32" cy="28.698" r="19.518" transform="rotate(86.42 1283.32 28.698)"/><circle cx="1290.51" cy="49.296" r="14.887" transform="rotate(86.42 1290.51 49.296)"/><circle cx="79.103" cy="79.356" r="12.76"/><circle cx="69.887" cy="71.558" r="14.887"/><circle cx="85.483" cy="65.887" r="14.887"/><circle cx="1083.86" cy="59.962" r="12.173" transform="rotate(54.694 1083.86 59.962)"/><circle cx="1084.75" cy="48.753" r="14.887" transform="rotate(54.694 1084.75 48.753)"/><circle cx="1098.39" cy="58.202" r="14.887" transform="rotate(54.694 1098.39 58.202)"/></g><defs><clipPath id="a"><path fill="#fff" d="M0 0H1440V609H0z"/></clipPath></defs></svg>