<svg width="393" height="771" fill="none" xmlns="http://www.w3.org/2000/svg"><g clip-path="url(#a)" fill="#289C5E"><circle cx="34" cy="136" r="9"/><circle cx="27.5" cy="130.5" r="10.5"/><circle cx="38.5" cy="126.5" r="10.5"/><circle cx="337.004" cy="124.543" r="8.586" transform="rotate(54.694 337.004 124.543)"/><circle cx="337.637" cy="116.637" r="10.5" transform="rotate(54.694 337.637 116.637)"/><circle cx="347.259" cy="123.302" r="10.5" transform="rotate(54.694 347.259 123.302)"/><circle cx="146.135" cy="46.484" r="10.5" transform="rotate(86.42 146.135 46.484)"/><circle cx="155.678" cy="34.599" r="13.766" transform="rotate(86.42 155.678 34.599)"/><circle cx="160.754" cy="49.127" r="10.5" transform="rotate(86.42 160.754 49.127)"/><circle cx="323.5" cy="327.5" r="123.5"/><circle cx="97.5" cy="293.5" r="123.5"/><circle cx="219.5" cy="243.5" r="123.5"/><path d="M0 289H393V771H0z"/></g><defs><clipPath id="a"><path fill="#fff" d="M0 0H393V771H0z"/></clipPath></defs></svg>